<svg viewBox="0 0 16 16" fill="none" xmlns="http://www.w3.org/2000/svg">
<circle cx="7.96774" cy="7.96783" r="7.62818" transform="rotate(38.0057 7.96774 7.96783)" stroke="#065F46" stroke-width="0.600601"/>
<path fill-rule="evenodd" clip-rule="evenodd" d="M5.29688 4.35933C5.14656 4.40004 4.99766 4.40747 4.96611 4.37592C4.93456 4.34437 4.90881 4.37205 4.90881 4.43729C4.90881 4.5065 4.75075 4.55606 4.53 4.55606H4.15119L4.37215 4.77712L4.5932 4.99807L4.16859 5.50533C3.73523 6.02286 2.80591 6.69336 2.52196 6.69336C2.31464 6.69336 2.32095 6.94067 2.53376 7.15349C2.64429 7.26412 2.79798 7.30381 2.9769 7.26799C3.12753 7.23786 3.30665 7.26799 3.37515 7.33496C3.47082 7.42859 3.47021 7.39144 3.3724 7.17405C3.18259 6.75219 3.39734 6.63708 3.596 7.05415L3.75884 7.39633L3.46878 7.46004C3.3092 7.49505 3.17862 7.5609 3.17862 7.60639C3.17862 7.77157 3.70979 7.81625 4.27811 7.69891C4.78302 7.59459 4.90423 7.60171 5.19684 7.75305C5.47866 7.89879 5.51316 7.95233 5.40751 8.07955C5.3381 8.16331 5.14015 8.29318 4.96784 8.36829C4.64806 8.50762 3.87375 9.21802 3.62022 9.60477C3.52191 9.75468 3.50756 9.89238 3.57249 10.0628C3.66317 10.301 3.67783 10.2932 4.2376 9.70583C4.77314 9.14392 5.31592 8.7472 5.31592 8.91778C5.31592 8.9591 5.12885 9.17395 4.90026 9.39521C4.67167 9.61647 4.39006 9.92872 4.27434 10.0891L4.06407 10.3807L4.30752 10.3035C4.52501 10.2345 4.53621 10.244 4.41214 10.3935C4.29093 10.5396 4.29978 10.5609 4.48196 10.5609C4.59677 10.5609 4.75126 10.4938 4.82525 10.4117C5.15704 10.0437 5.27185 9.893 5.36762 9.69952C5.49871 9.4346 6.1171 9.1311 6.66822 9.06118C6.90403 9.03126 7.14453 8.96958 7.20264 8.92409C7.26076 8.87869 7.83325 8.81051 8.47484 8.77254C9.5324 8.71005 9.67468 8.72277 9.99762 8.90862C10.1935 9.02138 10.5272 9.16855 10.7391 9.23562C11.3288 9.42248 11.4763 9.72456 11.3522 10.4909C11.296 10.8373 11.219 11.1909 11.1811 11.2768C11.1287 11.3957 11.1848 11.4387 11.4157 11.4563C11.7514 11.4818 11.9789 11.2102 11.8666 10.9176C11.8313 10.8258 11.8553 10.6507 11.92 10.5286C12.0103 10.3575 12.0052 10.1835 11.8975 9.77209C11.7457 9.19217 11.7696 9.16743 12.2771 9.37943C12.7279 9.56782 12.9093 10.0439 12.6912 10.4657C12.5586 10.7222 12.5578 10.8016 12.685 11.0926C12.7652 11.2759 12.8345 11.363 12.839 11.2863C12.8455 11.1766 12.8787 11.1726 12.9932 11.2676C13.1106 11.3651 13.1717 11.3388 13.307 11.1324C13.4069 10.9799 13.448 10.7915 13.4085 10.6671C13.3642 10.5274 13.394 10.4382 13.4982 10.3982C13.7358 10.307 12.9268 8.72888 12.6427 8.72888C12.2581 8.72888 12.0331 8.37216 12.0331 7.76201C12.0331 7.23277 12.047 7.20224 12.2876 7.20224C12.6547 7.20224 12.6978 7.23053 12.667 7.45088C12.6152 7.81982 13.0061 8.42355 13.2966 8.42355C13.3106 8.42355 13.3015 8.16026 13.2762 7.83834C13.2156 7.06423 13.0338 6.85763 12.48 6.93355C12.1231 6.9825 12.0258 6.95309 11.8207 6.73488C11.5142 6.40849 10.3098 5.74491 9.61596 5.51998C9.32203 5.42472 9.08163 5.30941 9.08163 5.26361C9.08163 5.21791 8.98067 5.1484 8.85742 5.10921C8.73407 5.07013 8.57051 4.97548 8.49388 4.89884C8.41734 4.82231 8.2663 4.75961 8.15842 4.75961C8.05044 4.75961 7.96209 4.71381 7.96209 4.65784C7.96209 4.60186 7.75325 4.55606 7.4981 4.55606C7.21465 4.55606 7.05853 4.51647 7.097 4.45428C7.13272 4.39648 7.03644 4.34742 6.87401 4.3407C6.71676 4.33419 6.35912 4.31913 6.07924 4.30722C5.79935 4.29521 5.44731 4.31872 5.29688 4.35933ZM4.04331 4.96388C4.0084 5.02026 4.05349 5.09466 4.14346 5.12916C4.33826 5.20387 4.44685 5.12153 4.35322 4.96998C4.26874 4.8332 4.12575 4.83045 4.04331 4.96388ZM4.24147 5.81992C4.13287 5.8993 4.08208 6.0023 4.12849 6.04881C4.17501 6.09522 4.2722 6.05237 4.34446 5.95355C4.42965 5.83701 4.53998 5.79844 4.65814 5.84383C4.78332 5.89177 4.81732 5.8764 4.76683 5.79468C4.66842 5.6355 4.48135 5.64445 4.24147 5.81992ZM3.78927 7.10046C3.78927 7.15644 3.85797 7.20224 3.94194 7.20224C4.0259 7.20224 4.0946 7.15644 4.0946 7.10046C4.0946 7.04449 4.0259 6.99869 3.94194 6.99869C3.85797 6.99869 3.78927 7.04449 3.78927 7.10046Z" fill="#065F46"/>
</svg>
